<svg xmlns="http://www.w3.org/2000/svg" aria-hidden="true" style="position:absolute;width:0;height:0;overflow:hidden">
  <defs>
    <symbol id="icon-go-back-arrow" viewBox="0 0 32 32">
      <path stroke-linecap="round" stroke-linejoin="round" stroke-width="1.28" d="M21.76 16.004H10.24m0 0 5.168 5.17m-5.168-5.17 5.168-5.17"/>
    </symbol>
    <symbol id="icon-delete-bin" viewBox="0 0 32 32">
      <path stroke-linecap="round" stroke-linejoin="round" stroke-width="1.333" d="M16 21.846v-8.769M6.5 9.423h2.192m16.808 0h-2.192m-3.654 0h-7.308m7.308 0V7.961c0-.807-.654-1.462-1.462-1.462h-4.385c-.807 0-1.462.654-1.462 1.462v1.462m7.309 0h3.654m-10.962 0H8.692m14.616 0v13.154a2.923 2.923 0 0 1-2.923 2.923h-8.769a2.923 2.923 0 0 1-2.923-2.923V9.423"/>
    </symbol>
    <symbol id="icon-Media-camera" viewBox="0 0 32 32">
      <path d="M19.654 17.462a3.654 3.654 0 1 1-7.308 0 3.654 3.654 0 0 1 7.308 0z"/>
      <path d="M6.5 22.5v-8.906a2.71 2.71 0 0 1 2.71-2.71 2.71 2.71 0 0 0 2.424-1.498l.614-1.228A3 3 0 0 1 14.931 6.5h2.138a3 3 0 0 1 2.683 1.658l.614 1.228a2.71 2.71 0 0 0 2.424 1.498 2.71 2.71 0 0 1 2.71 2.71V22.5a3 3 0 0 1-3 3h-13a3 3 0 0 1-3-3z"/>
    </symbol>
    <symbol id="icon-log-out" viewBox="0 0 32 32">
      <path stroke-linecap="round" stroke-linejoin="round" stroke-width="1.143" d="M13.495 5.571h-3.132a2.505 2.505 0 0 0-2.505 2.505v11.275a2.506 2.506 0 0 0 2.505 2.506h3.132m-1.352-8.143H24.67m0 0-3.758 3.758m3.758-3.758-3.758-3.758"/>
    </symbol>
    <symbol id="icon-close" viewBox="0 0 32 32">
      <path stroke-linecap="round" stroke-linejoin="round" stroke-width="1.28" d="M7.36 7.36 16 16m0 0-8.64 8.64M16 16l8.64 8.64M16 16l8.64-8.64"/>
    </symbol>
    <symbol id="icon-save-to-fav" viewBox="0 0 32 32">
      <path stroke-width=".8" d="M12.8.4h6.4c3.028 0 5.26.001 6.97.23 1.698.228 2.823.676 3.673 1.527s1.298 1.975 1.527 3.673c.23 1.71.23 3.941.23 6.97v6.4c0 3.028-.001 5.26-.23 6.97-.228 1.698-.676 2.823-1.527 3.673s-1.975 1.298-3.673 1.527c-1.71.23-3.941.23-6.97.23h-6.4c-3.028 0-5.26-.001-6.97-.23-1.698-.228-2.823-.676-3.673-1.527S.859 27.868.63 26.17C.4 24.46.4 22.229.4 19.2v-6.4c0-3.028.001-5.26.23-6.97.228-1.698.676-2.823 1.527-3.673S4.132.859 5.83.63C7.54.4 9.771.4 12.8.4z"/>
      <path stroke-linecap="round" stroke-linejoin="round" stroke-width=".8" d="M15.998 9.2c1.011 0 1.939.097 2.674.209.931.142 1.661.78 1.869 1.671.251 1.076.497 2.713.455 4.912-.047 2.426-.401 4.177-.742 5.32-.092.309-.306.468-.548.509-.253.043-.564-.041-.818-.294a17.97 17.97 0 0 0-1.477-1.339 5.653 5.653 0 0 0-.71-.487c-.212-.118-.46-.224-.702-.224-.238 0-.495.105-.72.22a6.805 6.805 0 0 0-.775.483c-.543.383-1.144.88-1.673 1.34-.279.243-.609.3-.868.23-.25-.068-.462-.26-.527-.595-.223-1.15-.435-2.85-.435-5.154 0-2.299.237-3.92.473-4.964.195-.865.901-1.481 1.809-1.621a17.933 17.933 0 0 1 2.716-.215z"/>
    </symbol>
    <symbol id="icon-time-clock" viewBox="0 0 32 32">
      <path stroke-linecap="round" stroke-linejoin="round" stroke-width=".667" d="M16 10.154v6.577l4.385 3.654M25.5 16c0 5.247-4.253 9.5-9.5 9.5S6.5 21.247 6.5 16s4.253-9.5 9.5-9.5 9.5 4.253 9.5 9.5z"/>
    </symbol>
    <symbol id="icon-filter" viewBox="0 0 32 32">
      <path stroke-width="1.28" d="M9.192 7.84h13.616a1.832 1.832 0 0 1 1.332 3.09l-6.146 6.511v4.507a1.994 1.994 0 1 1-3.988 0v-4.507L7.86 10.93a1.832 1.832 0 0 1 1.332-3.09z"/>
    </symbol>
    <symbol id="icon-password-hide" viewBox="0 0 32 32">
      <path stroke-linecap="round" stroke-width="1.28" d="M19.086 22.384c-1.042.484-2.2.799-3.418.799-4.588 0-8.308-4.469-8.308-5.604 0-.644 1.195-2.358 3.066-3.723m12.553 5.519c.636-.765.997-1.442.997-1.796 0-1.135-3.719-5.604-8.308-5.604 2.019 0 3.655 1.623 3.655 3.626m-3.655 3.626c-2.019 0-3.655-1.623-3.655-3.626m12.627-3.626C22.11 9.881 19.156 8.679 16 8.679c-1.137 0-2.248.156-3.323.454M7.36 11.975c.235-.194.473-.381.714-.559M7.36 7.36l16.046 16.2"/>
    </symbol>
    <symbol id="icon-password-show" viewBox="0 0 32 32">
      <path stroke-linejoin="miter" stroke-linecap="round" stroke-miterlimit="4" stroke-width="1" d="M15.654 11.909c-4.779 0-8.654 4.621-8.654 5.795s3.874 5.796 8.654 5.796c4.779 0 8.654-4.621 8.654-5.796s-3.875-5.795-8.654-5.795zM15.654 11.909c-2.103 0-3.808 1.679-3.808 3.75s1.705 3.75 3.808 3.75 3.808-1.679 3.808-3.75c0-2.071-1.705-3.75-3.808-3.75zM25 11.909c-2.636-2.166-5.713-3.409-9-3.409s-6.364 1.243-9 3.409"></path>
    </symbol>
    <symbol id="icon-burger-menu" viewBox="0 0 32 32">
      <path stroke-linecap="round" stroke-width="1.293" d="M7.758 9.536h16.485M7.758 21.172h16.485M7.758 15.354h16.485"/>
    </symbol>
    <symbol id="icon-pagination-forwards" viewBox="0 0 32 32">
      <path stroke-linejoin="round" stroke-linecap="round" stroke-miterlimit="4" stroke-width="1.3333" d="M6 16.004l19.996-0.004M25.996 16l-5.383-5.387M25.996 16l-5.383 5.387"></path>
    </symbol>
    <symbol id="icon-pagination-backwards" viewBox="0 0 32 32">
      <path stroke-linejoin="round" stroke-linecap="round" stroke-miterlimit="4" stroke-width="1.3333" d="M25.997 16l-19.996 0.004M6.001 16.004l5.384 5.385M6 16.003l5.384-5.384"></path>
    </symbol>
    <symbol id="icon-arrow-down" viewBox="0 0 64 32">
      <path stroke-linejoin="round" stroke-linecap="round" stroke-miterlimit="4" stroke-width="4" d="M59 2.5l-27 27-27-27"></path>
    </symbol>
    <symbol id="icon-camera" viewBox="0 0 52 52">
      <path d="M16 10.001c-4.419 0-8 3.581-8 8s3.581 8 8 8c4.418 0 8-3.582 8-8s-3.582-8-8-8zM20.555 21.906c-2.156 2.516-5.943 2.807-8.459 0.65-2.517-2.156-2.807-5.944-0.65-8.459 2.155-2.517 5.943-2.807 8.459-0.65 2.515 2.155 2.806 5.944 0.65 8.459zM16 14.001c0.276 0 0.5 0.224 0.5 0.5s-0.224 0.5-0.5 0.5c-1.657 0-2.999 1.343-3 2.999v0.002c0 0.275-0.224 0.5-0.5 0.5s-0.5-0.225-0.5-0.5v-0.002c0.001-2.208 1.791-3.999 4-3.999zM29.492 9.042l-4.334-0.723-1.373-3.434c-0.459-1.145-1.553-1.885-2.785-1.885h-10c-1.232 0-2.326 0.74-2.786 1.886l-1.372 3.433-4.333 0.723c-1.454 0.241-2.509 1.485-2.509 2.958v15c0 1.654 1.346 3 3 3h26c1.654 0 3-1.346 3-3v-15c0-1.473-1.055-2.717-2.508-2.958zM30 27c0 0.553-0.447 1-1 1h-26c-0.553 0-1-0.447-1-1v-15c0-0.489 0.354-0.906 0.836-0.986l5.444-0.907 1.791-4.478c0.153-0.379 0.52-0.629 0.929-0.629h10c0.408 0 0.775 0.249 0.928 0.629l1.791 4.478 5.445 0.907c0.482 0.080 0.836 0.497 0.836 0.986v15z"></path>
    </symbol>
    <symbol id="icon-trash-can" viewBox="0 0 32 32">
      <path d="M23 7h4v1h-2v18.993c0 1.671-1.343 3.007-3 3.007h-11c-1.666 0-3-1.346-3-3.007v-18.993h-2v-1h6v-1.995c0-1.111 0.894-2.005 1.997-2.005h5.005c1.102 0 1.997 0.898 1.997 2.005v1.995h2zM9 8v19.005c0 1.102 0.893 1.995 1.992 1.995h11.016c1.1 0 1.992-0.902 1.992-1.995v-19.005h-15zM12 10v17h1v-17h-1zM16 10v17h1v-17h-1zM20 10v17h1v-17h-1zM14.003 4c-0.554 0-1.003 0.443-1.003 0.999v2.001h7v-2.001c0-0.552-0.438-0.999-1.003-0.999h-4.994z"></path>
    </symbol>
    <symbol id="icon-save-favorite" viewBox="0 0 26 32">
      <path fill="none" stroke="#fff" style="stroke: var(--color1, #fff)" stroke-linejoin="round" stroke-linecap="round" stroke-miterlimit="4" stroke-width="1.8824" d="M13.171 0.941c2.379 0 4.563 0.226 6.293 0.489 2.191 0.335 3.908 1.835 4.397 3.934 0.589 2.532 1.167 6.383 1.069 11.558-0.109 5.709-0.941 9.83-1.747 12.518-0.216 0.727-0.719 1.099-1.288 1.195-0.595 0.102-1.329-0.096-1.926-0.691-1.084-1.080-2.328-2.248-3.475-3.151-0.49-0.398-1.036-0.776-1.61-1.111l-0.062-0.033c-0.499-0.277-1.082-0.527-1.653-0.527-0.561 0-1.165 0.245-1.694 0.518-0.561 0.29-1.186 0.685-1.822 1.137-1.278 0.902-2.692 2.071-3.938 3.151-0.659 0.572-1.431 0.708-2.042 0.54-0.589-0.16-1.086-0.612-1.239-1.4-0.527-2.707-1.024-6.705-1.024-12.126 0-5.408 0.557-9.224 1.111-11.68 0.463-2.035 2.123-3.484 4.26-3.814 1.915-0.315 4.127-0.499 6.381-0.506l0.008-0z"></path>
    </symbol>
    <symbol id="icon-flag" viewBox="0 0 28 32">
      <path stroke-linejoin="round" stroke-linecap="round" stroke-miterlimit="4" stroke-width="1.8824"
                d="M14.112 0.941c2.379 0 4.562 0.228 6.292 0.491 2.191 0.333 3.908 1.834 4.397 3.932 0.59 2.532 1.169 6.385 1.070 11.559-0.11 5.709-0.943 9.829-1.746 12.516-0.217 0.727-0.72 1.101-1.289 1.197-0.594 0.1-1.328-0.098-1.925-0.691-1.086-1.081-2.329-2.248-3.476-3.151-0.572-0.45-1.142-0.852-1.671-1.145-0.499-0.277-1.083-0.528-1.653-0.528-0.56 0-1.165 0.247-1.693 0.518-0.563 0.289-1.186 0.686-1.824 1.136-1.277 0.902-2.692 2.070-3.938 3.153-0.658 0.571-1.432 0.706-2.042 0.54-0.589-0.16-1.086-0.613-1.239-1.401-0.525-2.707-1.024-6.705-1.024-12.127 0-5.409 0.557-9.224 1.112-11.68 0.46-2.035 2.12-3.485 4.255-3.814 1.746-0.27 3.967-0.505 6.392-0.505z">
            </path>
    </symbol>
    <symbol id="icon-pagination-forwards" viewBox="0 0 32 32">
      <path stroke-linejoin="round" stroke-linecap="round" stroke-miterlimit="4" stroke-width="1.3333" d="M6 16.004l19.996-0.004M25.996 16l-5.383-5.387M25.996 16l-5.383 5.387"></path>
    </symbol>
    <symbol id="icon-pagination-backwards" viewBox="0 0 32 32">
      <path stroke-linejoin="round" stroke-linecap="round" stroke-miterlimit="4" stroke-width="1.3333" d="M25.997 16l-19.996 0.004M6.001 16.004l5.384 5.385M6 16.003l5.384-5.384"></path>
    </symbol>
    <symbol id="icon-arrow-down" viewBox="0 0 64 32">
      <path stroke-linejoin="round" stroke-linecap="round" stroke-miterlimit="4" stroke-width="4" d="M59 2.5l-27 27-27-27"></path>
    </symbol>
    <symbol id="icon-email-svg-repo" viewBox="0 0 32 32">
<path fill="#211715" style="fill: var(--color2, #211715)" d="M13.561 29.016c0-0.023 0.002-0.046 0.003-0.069 0.003-0.044-0.010 0.053-0.001 0.011 0.002-0.011 0.004-0.023 0.007-0.034 0.005-0.023 0.013-0.044 0.020-0.066 0.013-0.041-0.023 0.046-0.003 0.008 0.007-0.014 0.014-0.027 0.022-0.041 0.006-0.010 0.013-0.019 0.019-0.029 0.023-0.035-0.034 0.037-0.004 0.007 0.019-0.015 0.035-0.032 0.051-0.049l0-0c-0.022 0.033-0.027 0.020-0.003 0.004 0.007-0.005 0.014-0.009 0.022-0.013 0.013-0.005 0.025-0.011 0.035-0.018l-0.001 0q-0.046 0.019-0.013 0.006c0.009-0.003 0.018-0.006 0.027-0.009 0.025-0.011 0.055-0.018 0.086-0.020l0.001-0c-0.053-0.005-0.008 0.002 0.008 0.001 0.017-0.001 0.034-0.002 0.052-0.002s0.033 0.002 0.049 0.003c0.053 0.003-0.045-0.011 0.005 0.001 0.008 0.002 0.096 0.027 0.096 0.027-0.003 0.004-0.046-0.022-0.002 0 0.011 0.006 0.023 0.012 0.034 0.019 0.022 0.014 0.023 0.030-0.002-0.004 0.006 0.006 0.012 0.011 0.018 0.016l0 0c0.018 0.016 0.032 0.039 0.050 0.053-0.035-0.027-0.019-0.025-0.005-0.004 0.008 0.011 0.016 0.025 0.023 0.039l0.001 0.003c0.010 0.019 0.010 0.045-0.001-0.006 0.002 0.012 0.009 0.024 0.013 0.035 0.007 0.019 0.014 0.044 0.019 0.069l0.001 0.004c0.002 0.014 0.004 0.027 0.007 0.040l-0-0.002c-0.018-0.047-0.004-0.028-0.002-0.005 0.002 0.018 0.003 0.040 0.003 0.062 0 0.008-0 0.016-0 0.024l0-0.001c0 0.008-0.001 0.016-0.002 0.024-0.001 0.025-0.014 0.018 0.004-0.022-0.005 0.016-0.009 0.037-0.012 0.057l-0 0.002c-0.007 0.017-0.014 0.037-0.019 0.057l-0.001 0.003c-0.006-0.008 0.024-0.052 0.004-0.011q-0.010 0.020-0.021 0.039c-0.006 0.010-0.012 0.019-0.018 0.028-0.022 0.035 0.034-0.038 0.006-0.007-0.016 0.017-0.032 0.033-0.049 0.050-0.031 0.030 0.042-0.027 0.005-0.003-0.010 0.007-0.020 0.014-0.031 0.020-0.007 0.004-0.015 0.009-0.022 0.012-0.052 0.027 0.027-0.006-0.009 0.006-0.021 0.008-0.049 0.016-0.076 0.022l-0.005 0.001c-0.017 0.004-0.052 0.021-0.004 0.002-0.011 0.003-0.024 0.004-0.037 0.004-0.004 0-0.008-0-0.012-0l0.001 0c-0.019 0.001-0.083 0.010-0.097-0.002l0.027 0.004q-0.014-0.002-0.029-0.005c-0.022-0.004-0.040-0.009-0.057-0.015l0.004 0.001-0.013-0.004q-0.032-0.012 0.014 0.007c-0.008-0.009-0.033-0.017-0.044-0.023-0.009-0.007-0.019-0.014-0.029-0.020l-0.001-0q0.040 0.032 0.015 0.011l-0.009-0.008c-0.009-0.008-0.017-0.016-0.025-0.024l-0-0c-0.005-0.005-0.010-0.011-0.015-0.017l-0-0.001q-0.021-0.025 0.012 0.016c-0.011-0.023-0.029-0.044-0.041-0.067-0.005-0.010-0.009-0.021-0.014-0.030 0.033 0.054 0.008 0.019 0.001-0.001s-0.014-0.044-0.019-0.069l-0.001-0.005c-0.002-0.010-0.004-0.021-0.006-0.031-0.009-0.036 0.005 0.060 0.001 0.005-0.002-0.020-0.003-0.043-0.003-0.067v-0.001c0-0.117-0.095-0.212-0.212-0.212s-0.212 0.095-0.212 0.212v0c0.002 0.269 0.122 0.561 0.373 0.688 0.293 0.148 0.71 0.098 0.928-0.162 0.113-0.137 0.181-0.315 0.181-0.508 0-0.102-0.019-0.2-0.054-0.289l0.002 0.005c-0.055-0.156-0.159-0.283-0.293-0.367l-0.003-0.002c-0.114-0.064-0.251-0.101-0.396-0.101-0.051 0-0.101 0.005-0.15 0.014l0.005-0.001c-0.191 0.028-0.354 0.131-0.46 0.278l-0.001 0.002c-0.082 0.12-0.131 0.269-0.131 0.429 0 0.005 0 0.010 0 0.015v-0.001c0 0.117 0.095 0.212 0.212 0.212s0.212-0.095 0.212-0.212v0zM11.934 12.751c0.27 0.142 0.589 0.225 0.928 0.225 0.016 0 0.033-0 0.049-0.001l-0.002 0c0.345-0.002 0.698-0.068 0.975-0.283 0.038-0.039 0.062-0.092 0.062-0.15s-0.024-0.112-0.062-0.15l0 0c-0.039-0.037-0.092-0.060-0.15-0.060s-0.111 0.023-0.15 0.060l0-0c0.062-0.048 0.004-0.004-0.012 0.006q-0.030 0.019-0.062 0.036c-0.012 0.007-0.082 0.037-0.034 0.018q-0.042 0.017-0.085 0.031c-0.138 0.044-0.296 0.070-0.46 0.070-0.019 0-0.038-0-0.056-0.001l0.003 0c-0.009 0-0.020 0-0.031 0-0.164 0-0.322-0.024-0.471-0.069l0.011 0.003c-0.031-0.009-0.062-0.020-0.092-0.031-0.010-0.003-0.020-0.008-0.030-0.012 0.052 0.019 0.007 0.003-0.003-0.002-0.052-0.024-0.089-0.043-0.126-0.063l0.013 0.006c-0.030-0.017-0.067-0.027-0.105-0.027-0.078 0-0.146 0.041-0.184 0.103l-0.001 0.001c-0.018 0.031-0.028 0.067-0.028 0.106 0 0.078 0.041 0.146 0.103 0.183l0.001 0.001zM12.823 10.425c0.039 0.134 0.078 0.304 0.107 0.478l0.004 0.027-0.008-0.056c0.002 0.013 0.003 0.028 0.003 0.043 0 0.009-0 0.019-0.001 0.028l0-0.001 0.008-0.056c-0.002 0.012-0.004 0.022-0.008 0.033l0-0.001 0.021-0.051c-0.003 0.008-0.007 0.014-0.011 0.021l0-0 0.033-0.043c-0.005 0.006-0.010 0.011-0.016 0.016l-0 0 0.043-0.033c-0.011 0.007-0.024 0.014-0.038 0.020l-0.002 0.001 0.051-0.021c-0.019 0.009-0.042 0.015-0.066 0.019l-0.002 0 0.056-0.008c-0.009 0.001-0.020 0.002-0.032 0.002s-0.022-0.001-0.033-0.002l0.001 0 0.056 0.008c-0.024-0.003-0.047-0.009-0.071-0.012-0.016-0.004-0.034-0.006-0.053-0.006-0.040 0-0.078 0.010-0.111 0.028l0.001-0.001c-0.063 0.037-0.105 0.105-0.105 0.183 0 0.039 0.011 0.076 0.030 0.108l-0.001-0.001c0.027 0.048 0.072 0.083 0.125 0.097l0.001 0c0.050 0.007 0.099 0.020 0.15 0.022 0.001 0 0.002 0 0.004 0 0.077 0 0.15-0.019 0.215-0.052l-0.003 0.001c0.084-0.037 0.146-0.11 0.169-0.197l0-0.002c0.007-0.031 0.011-0.068 0.011-0.105 0-0.041-0.005-0.081-0.014-0.119l0.001 0.004c-0.027-0.163-0.065-0.324-0.107-0.483-0.026-0.091-0.107-0.156-0.205-0.156-0.117 0-0.212 0.095-0.212 0.212 0 0.020 0.003 0.040 0.008 0.058l-0-0.002zM10.109 9.009c-0.084 0.274-0.029 0.904 0.49 0.958 0.686-0.004 0.722-0.766 0.492-1.124-0.189-0.293-0.745-0.416-0.981 0.166zM15.602 9.009c0.084 0.274 0.029 0.904-0.49 0.958-0.686-0.004-0.722-0.766-0.492-1.124 0.189-0.293 0.745-0.415 0.981 0.167z"></path>
</symbol>
<symbol id="icon-email" viewBox="0 0 32 32">
    <path fill="none" stroke="#e5e7eb" style="stroke: var(--color2, #e5e7eb)" stroke-linejoin="miter" stroke-linecap="butt" stroke-miterlimit="4" stroke-width="2" d="M32 32h-32v-32h32v32z"></path>
    <path fill="#bcbebf" style="fill: var(--color1, #bcbebf)" d="M4 7c-0.55 0-1 0.45-1 1v1.38l10.78 8.852c0.599 0.497 1.376 0.798 2.223 0.798s1.624-0.301 2.229-0.802l-0.006 0.005 10.774-8.852v-1.38c0-0.55-0.45-1-1-1h-24zM3 13.262v10.738c0 0.55 0.45 1 1 1h24c0.55 0 1-0.45 1-1v-10.738l-8.876 7.288c-1.113 0.919-2.553 1.476-4.124 1.476s-3.011-0.557-4.135-1.485l0.011 0.009-8.876-7.288zM0 8c0-2.206 1.794-4 4-4h24c2.206 0 4 1.794 4 4v16c0 2.206-1.794 4-4 4h-24c-2.206 0-4-1.794-4-4v-16z"></path>
    </symbol>
  </defs>
</svg>