<svg xmlns="http://www.w3.org/2000/svg" aria-hidden="true" style="position:absolute;width:0;height:0;overflow:hidden">
  <defs>
    <symbol id="icon-go-back-arrow" viewBox="0 0 32 32">
      <path stroke-linecap="round" stroke-linejoin="round" stroke-width="1.28" d="M21.76 16.004H10.24m0 0 5.168 5.17m-5.168-5.17 5.168-5.17"/>
    </symbol>
    <symbol id="icon-delete-bin" viewBox="0 0 32 32">
      <path stroke-linecap="round" stroke-linejoin="round" stroke-width="1.333" d="M16 21.846v-8.769M6.5 9.423h2.192m16.808 0h-2.192m-3.654 0h-7.308m7.308 0V7.961c0-.807-.654-1.462-1.462-1.462h-4.385c-.807 0-1.462.654-1.462 1.462v1.462m7.309 0h3.654m-10.962 0H8.692m14.616 0v13.154a2.923 2.923 0 0 1-2.923 2.923h-8.769a2.923 2.923 0 0 1-2.923-2.923V9.423"/>
    </symbol>
    <symbol id="icon-Media-camera" viewBox="0 0 32 32">
      <path d="M19.654 17.462a3.654 3.654 0 1 1-7.308 0 3.654 3.654 0 0 1 7.308 0z"/>
      <path d="M6.5 22.5v-8.906a2.71 2.71 0 0 1 2.71-2.71 2.71 2.71 0 0 0 2.424-1.498l.614-1.228A3 3 0 0 1 14.931 6.5h2.138a3 3 0 0 1 2.683 1.658l.614 1.228a2.71 2.71 0 0 0 2.424 1.498 2.71 2.71 0 0 1 2.71 2.71V22.5a3 3 0 0 1-3 3h-13a3 3 0 0 1-3-3z"/>
    </symbol>
    <symbol id="icon-log-out" viewBox="0 0 32 32">
      <path stroke-linecap="round" stroke-linejoin="round" stroke-width="1.143" d="M13.495 5.571h-3.132a2.505 2.505 0 0 0-2.505 2.505v11.275a2.506 2.506 0 0 0 2.505 2.506h3.132m-1.352-8.143H24.67m0 0-3.758 3.758m3.758-3.758-3.758-3.758"/>
    </symbol>
    <symbol id="icon-close" viewBox="0 0 32 32">
      <path stroke-linecap="round" stroke-linejoin="round" stroke-width="1.28" d="M7.36 7.36 16 16m0 0-8.64 8.64M16 16l8.64 8.64M16 16l8.64-8.64"/>
    </symbol>
    <symbol id="icon-save-to-fav" viewBox="0 0 32 32">
      <path stroke-width=".8" d="M12.8.4h6.4c3.028 0 5.26.001 6.97.23 1.698.228 2.823.676 3.673 1.527s1.298 1.975 1.527 3.673c.23 1.71.23 3.941.23 6.97v6.4c0 3.028-.001 5.26-.23 6.97-.228 1.698-.676 2.823-1.527 3.673s-1.975 1.298-3.673 1.527c-1.71.23-3.941.23-6.97.23h-6.4c-3.028 0-5.26-.001-6.97-.23-1.698-.228-2.823-.676-3.673-1.527S.859 27.868.63 26.17C.4 24.46.4 22.229.4 19.2v-6.4c0-3.028.001-5.26.23-6.97.228-1.698.676-2.823 1.527-3.673S4.132.859 5.83.63C7.54.4 9.771.4 12.8.4z"/>
      <path stroke-linecap="round" stroke-linejoin="round" stroke-width=".8" d="M15.998 9.2c1.011 0 1.939.097 2.674.209.931.142 1.661.78 1.869 1.671.251 1.076.497 2.713.455 4.912-.047 2.426-.401 4.177-.742 5.32-.092.309-.306.468-.548.509-.253.043-.564-.041-.818-.294a17.97 17.97 0 0 0-1.477-1.339 5.653 5.653 0 0 0-.71-.487c-.212-.118-.46-.224-.702-.224-.238 0-.495.105-.72.22a6.805 6.805 0 0 0-.775.483c-.543.383-1.144.88-1.673 1.34-.279.243-.609.3-.868.23-.25-.068-.462-.26-.527-.595-.223-1.15-.435-2.85-.435-5.154 0-2.299.237-3.92.473-4.964.195-.865.901-1.481 1.809-1.621a17.933 17.933 0 0 1 2.716-.215z"/>
    </symbol>
    <symbol id="icon-time-clock" viewBox="0 0 32 32">
      <path stroke-linecap="round" stroke-linejoin="round" stroke-width=".667" d="M16 10.154v6.577l4.385 3.654M25.5 16c0 5.247-4.253 9.5-9.5 9.5S6.5 21.247 6.5 16s4.253-9.5 9.5-9.5 9.5 4.253 9.5 9.5z"/>
    </symbol>
    <symbol id="icon-filter" viewBox="0 0 32 32">
      <path stroke-width="1.28" d="M9.192 7.84h13.616a1.832 1.832 0 0 1 1.332 3.09l-6.146 6.511v4.507a1.994 1.994 0 1 1-3.988 0v-4.507L7.86 10.93a1.832 1.832 0 0 1 1.332-3.09z"/>
    </symbol>
    <symbol id="icon-password-hide" viewBox="0 0 32 32">
      <path stroke-linecap="round" stroke-width="1.28" d="M19.086 22.384c-1.042.484-2.2.799-3.418.799-4.588 0-8.308-4.469-8.308-5.604 0-.644 1.195-2.358 3.066-3.723m12.553 5.519c.636-.765.997-1.442.997-1.796 0-1.135-3.719-5.604-8.308-5.604 2.019 0 3.655 1.623 3.655 3.626m-3.655 3.626c-2.019 0-3.655-1.623-3.655-3.626m12.627-3.626C22.11 9.881 19.156 8.679 16 8.679c-1.137 0-2.248.156-3.323.454M7.36 11.975c.235-.194.473-.381.714-.559M7.36 7.36l16.046 16.2"/>
    </symbol>
    <symbol id="icon-password-show" viewBox="0 0 32 32">
      <path stroke-linejoin="miter" stroke-linecap="round" stroke-miterlimit="4" stroke-width="1" d="M15.654 11.909c-4.779 0-8.654 4.621-8.654 5.795s3.874 5.796 8.654 5.796c4.779 0 8.654-4.621 8.654-5.796s-3.875-5.795-8.654-5.795zM15.654 11.909c-2.103 0-3.808 1.679-3.808 3.75s1.705 3.75 3.808 3.75 3.808-1.679 3.808-3.75c0-2.071-1.705-3.75-3.808-3.75zM25 11.909c-2.636-2.166-5.713-3.409-9-3.409s-6.364 1.243-9 3.409"></path>
    </symbol>
    <symbol id="icon-burger-menu" viewBox="0 0 32 32">
      <path stroke-linecap="round" stroke-width="1.293" d="M7.758 9.536h16.485M7.758 21.172h16.485M7.758 15.354h16.485"/>
    </symbol>
    <symbol id="icon-pagination-forwards" viewBox="0 0 32 32">
      <path stroke-linejoin="round" stroke-linecap="round" stroke-miterlimit="4" stroke-width="1.3333" d="M6 16.004l19.996-0.004M25.996 16l-5.383-5.387M25.996 16l-5.383 5.387"></path>
    </symbol>
    <symbol id="icon-pagination-backwards" viewBox="0 0 32 32">
      <path stroke-linejoin="round" stroke-linecap="round" stroke-miterlimit="4" stroke-width="1.3333" d="M25.997 16l-19.996 0.004M6.001 16.004l5.384 5.385M6 16.003l5.384-5.384"></path>
    </symbol>
    <symbol id="icon-arrow-down" viewBox="0 0 64 32">
      <path stroke-linejoin="round" stroke-linecap="round" stroke-miterlimit="4" stroke-width="4" d="M59 2.5l-27 27-27-27"></path>
    </symbol>
    <symbol id="icon-camera" viewBox="0 0 52 52">
      <path d="M16 10.001c-4.419 0-8 3.581-8 8s3.581 8 8 8c4.418 0 8-3.582 8-8s-3.582-8-8-8zM20.555 21.906c-2.156 2.516-5.943 2.807-8.459 0.65-2.517-2.156-2.807-5.944-0.65-8.459 2.155-2.517 5.943-2.807 8.459-0.65 2.515 2.155 2.806 5.944 0.65 8.459zM16 14.001c0.276 0 0.5 0.224 0.5 0.5s-0.224 0.5-0.5 0.5c-1.657 0-2.999 1.343-3 2.999v0.002c0 0.275-0.224 0.5-0.5 0.5s-0.5-0.225-0.5-0.5v-0.002c0.001-2.208 1.791-3.999 4-3.999zM29.492 9.042l-4.334-0.723-1.373-3.434c-0.459-1.145-1.553-1.885-2.785-1.885h-10c-1.232 0-2.326 0.74-2.786 1.886l-1.372 3.433-4.333 0.723c-1.454 0.241-2.509 1.485-2.509 2.958v15c0 1.654 1.346 3 3 3h26c1.654 0 3-1.346 3-3v-15c0-1.473-1.055-2.717-2.508-2.958zM30 27c0 0.553-0.447 1-1 1h-26c-0.553 0-1-0.447-1-1v-15c0-0.489 0.354-0.906 0.836-0.986l5.444-0.907 1.791-4.478c0.153-0.379 0.52-0.629 0.929-0.629h10c0.408 0 0.775 0.249 0.928 0.629l1.791 4.478 5.445 0.907c0.482 0.080 0.836 0.497 0.836 0.986v15z"></path>
    </symbol>
    <symbol id="icon-trash-can" viewBox="0 0 32 32">
      <path d="M23 7h4v1h-2v18.993c0 1.671-1.343 3.007-3 3.007h-11c-1.666 0-3-1.346-3-3.007v-18.993h-2v-1h6v-1.995c0-1.111 0.894-2.005 1.997-2.005h5.005c1.102 0 1.997 0.898 1.997 2.005v1.995h2zM9 8v19.005c0 1.102 0.893 1.995 1.992 1.995h11.016c1.1 0 1.992-0.902 1.992-1.995v-19.005h-15zM12 10v17h1v-17h-1zM16 10v17h1v-17h-1zM20 10v17h1v-17h-1zM14.003 4c-0.554 0-1.003 0.443-1.003 0.999v2.001h7v-2.001c0-0.552-0.438-0.999-1.003-0.999h-4.994z"></path>
    </symbol>
    <symbol id="icon-save-favorite" viewBox="0 0 26 32">
      <path fill="none" stroke="#fff" style="stroke: var(--color1, #fff)" stroke-linejoin="round" stroke-linecap="round" stroke-miterlimit="4" stroke-width="1.8824" d="M13.171 0.941c2.379 0 4.563 0.226 6.293 0.489 2.191 0.335 3.908 1.835 4.397 3.934 0.589 2.532 1.167 6.383 1.069 11.558-0.109 5.709-0.941 9.83-1.747 12.518-0.216 0.727-0.719 1.099-1.288 1.195-0.595 0.102-1.329-0.096-1.926-0.691-1.084-1.080-2.328-2.248-3.475-3.151-0.49-0.398-1.036-0.776-1.61-1.111l-0.062-0.033c-0.499-0.277-1.082-0.527-1.653-0.527-0.561 0-1.165 0.245-1.694 0.518-0.561 0.29-1.186 0.685-1.822 1.137-1.278 0.902-2.692 2.071-3.938 3.151-0.659 0.572-1.431 0.708-2.042 0.54-0.589-0.16-1.086-0.612-1.239-1.4-0.527-2.707-1.024-6.705-1.024-12.126 0-5.408 0.557-9.224 1.111-11.68 0.463-2.035 2.123-3.484 4.26-3.814 1.915-0.315 4.127-0.499 6.381-0.506l0.008-0z"></path>
    </symbol>
    <symbol id="icon-flag" viewBox="0 0 28 32">
      <path stroke-linejoin="round" stroke-linecap="round" stroke-miterlimit="4" stroke-width="1.8824"
                d="M14.112 0.941c2.379 0 4.562 0.228 6.292 0.491 2.191 0.333 3.908 1.834 4.397 3.932 0.59 2.532 1.169 6.385 1.070 11.559-0.11 5.709-0.943 9.829-1.746 12.516-0.217 0.727-0.72 1.101-1.289 1.197-0.594 0.1-1.328-0.098-1.925-0.691-1.086-1.081-2.329-2.248-3.476-3.151-0.572-0.45-1.142-0.852-1.671-1.145-0.499-0.277-1.083-0.528-1.653-0.528-0.56 0-1.165 0.247-1.693 0.518-0.563 0.289-1.186 0.686-1.824 1.136-1.277 0.902-2.692 2.070-3.938 3.153-0.658 0.571-1.432 0.706-2.042 0.54-0.589-0.16-1.086-0.613-1.239-1.401-0.525-2.707-1.024-6.705-1.024-12.127 0-5.409 0.557-9.224 1.112-11.68 0.46-2.035 2.12-3.485 4.255-3.814 1.746-0.27 3.967-0.505 6.392-0.505z">
            </path>
    </symbol>
    <symbol id="icon-pagination-forwards" viewBox="0 0 32 32">
      <path stroke-linejoin="round" stroke-linecap="round" stroke-miterlimit="4" stroke-width="1.3333" d="M6 16.004l19.996-0.004M25.996 16l-5.383-5.387M25.996 16l-5.383 5.387"></path>
    </symbol>
    <symbol id="icon-pagination-backwards" viewBox="0 0 32 32">
      <path stroke-linejoin="round" stroke-linecap="round" stroke-miterlimit="4" stroke-width="1.3333" d="M25.997 16l-19.996 0.004M6.001 16.004l5.384 5.385M6 16.003l5.384-5.384"></path>
    </symbol>
    <symbol id="icon-arrow-down" viewBox="0 0 64 32">
      <path stroke-linejoin="round" stroke-linecap="round" stroke-miterlimit="4" stroke-width="4" d="M59 2.5l-27 27-27-27"></path>
    </symbol>
<symbol id="icon-email" viewBox="0 0 32 32">
    <path fill="none" stroke="#e5e7eb" style="stroke: var(--color2, #e5e7eb)" stroke-linejoin="miter" stroke-linecap="butt" stroke-miterlimit="4" stroke-width="2" d="M32 32h-32v-32h32v32z"></path>
    <path fill="#bcbebf" style="fill: var(--color1, #bcbebf)" d="M4 7c-0.55 0-1 0.45-1 1v1.38l10.78 8.852c0.599 0.497 1.376 0.798 2.223 0.798s1.624-0.301 2.229-0.802l-0.006 0.005 10.774-8.852v-1.38c0-0.55-0.45-1-1-1h-24zM3 13.262v10.738c0 0.55 0.45 1 1 1h24c0.55 0 1-0.45 1-1v-10.738l-8.876 7.288c-1.113 0.919-2.553 1.476-4.124 1.476s-3.011-0.557-4.135-1.485l0.011 0.009-8.876-7.288zM0 8c0-2.206 1.794-4 4-4h24c2.206 0 4 1.794 4 4v16c0 2.206-1.794 4-4 4h-24c-2.206 0-4-1.794-4-4v-16z"></path>
    </symbol>

    <symbol id="icon-eye-open" viewBox="0 0 43 32">
<path stroke-linejoin="round" stroke-linecap="round" stroke-miterlimit="4" stroke-width="1.7778" d="M6.61 14.16l-4.75-4.756M15.65 8.327l-1.936-6.265M36.057 14.16l4.75-4.754M27.017 8.325l1.936-6.263M21.333 7.493c-12.761 0-18.117 11.477-18.117 11.716 0 0.236 5.356 11.71 18.117 11.71s18.119-11.474 18.119-11.712c0-0.236-5.358-11.716-18.119-11.716z"></path>
<path stroke-linejoin="round" stroke-linecap="round" stroke-miterlimit="4" stroke-width="1.7778" d="M16.171 18.025c-0.104 0.391-0.163 0.841-0.163 1.304 0 2.926 2.372 5.298 5.298 5.298 2.551 0 4.68-1.802 5.185-4.203l0.006-0.035c0.085-0.355 0.134-0.763 0.134-1.182 0-2.925-2.371-5.296-5.296-5.296-2.506 0-4.605 1.74-5.156 4.078l-0.007 0.036z"></path>
</symbol>

<symbol id="icon-eye-closed" viewBox="0 0 64 32">
<path d="M60.41 24.454c-0.323 0.18-0.709 0.286-1.12 0.286-0.834 0-1.565-0.437-1.979-1.094l-0.006-0.010-5.396-9.056c-2.945 1.936-6.357 3.493-10.001 4.486l-0.25 0.058 1.67 9.606c0.020 0.109 0.032 0.235 0.032 0.363 0 0.478-0.16 0.918-0.428 1.271l0.004-0.005c-0.43 0.557-1.098 0.911-1.848 0.911-0.556 0-1.066-0.195-1.466-0.519l0.004 0.003c-0.398-0.322-0.678-0.777-0.772-1.296l-0.002-0.013-1.638-9.428c-1.565 0.221-3.373 0.346-5.21 0.346s-3.645-0.126-5.415-0.37l0.205 0.023-1.638 9.431c-0.096 0.532-0.376 0.987-0.77 1.306l-0.004 0.003c-0.396 0.321-0.905 0.515-1.46 0.515-0.137 0-0.271-0.012-0.401-0.034l0.014 0.002c-0.605-0.1-1.122-0.421-1.474-0.876l-0.004-0.005c-0.262-0.351-0.42-0.794-0.42-1.273 0-0.126 0.011-0.249 0.032-0.369l-0.002 0.013 1.676-9.606c-3.893-1.054-7.303-2.612-10.381-4.633l0.135 0.083-5.382 9.065c-0.416 0.665-1.145 1.101-1.975 1.101-0.105 0-0.208-0.007-0.309-0.020l0.012 0.001c-0.612-0.081-1.141-0.387-1.51-0.831l-0.003-0.004c-0.295-0.366-0.474-0.837-0.474-1.349 0-0.096 0.006-0.19 0.018-0.282l-0.001 0.011c0.042-0.303 0.141-0.576 0.288-0.818l-0.005 0.010 5.681-9.548c-2.008-1.672-3.802-3.458-5.428-5.39l-0.053-0.065c-0.359-0.385-0.579-0.904-0.579-1.474 0-0.057 0.002-0.113 0.006-0.169l-0 0.007c0.053-0.626 0.37-1.168 0.838-1.52l0.005-0.004c0.386-0.301 0.877-0.482 1.411-0.482 0.113 0 0.224 0.008 0.332 0.024l-0.012-0.001c0.629 0.088 1.168 0.415 1.532 0.885l0.004 0.005c4.719 5.603 12.969 12.273 25.507 12.273s20.791-6.679 25.507-12.273c0.43-0.565 1.104-0.927 1.861-0.927 0.856 0 1.605 0.461 2.010 1.148l0.006 0.011c0.162 0.293 0.258 0.642 0.258 1.014 0 0.577-0.231 1.1-0.605 1.483l0-0c-1.679 1.997-3.473 3.782-5.412 5.399l-0.069 0.056 5.681 9.542c0.199 0.317 0.317 0.703 0.317 1.117 0 0.816-0.46 1.524-1.135 1.88l-0.012 0.006z"></path>
</symbol>

<symbol id="icon-sign" viewBox="0 0 32 32">
<path d="M24.816 8.26v-7.346h-4.049v3.622l-4.705-4.299-15.809 14.15 2.404 2.708 2.437-2.2v18.28h21.812v-18.145l2.398 2.2 2.467-2.64-6.955-6.331zM22.465 31.869h-13.061v-6.651h3.69v2.978l5.956-4.963-5.956-4.963v2.97h-3.69v-6.873h13.061v17.502z"></path>
</symbol>
  </defs>
</svg>